<svg version="1.1" viewBox="0.0 0.0 288.0 288.0" fill="none" stroke="none" stroke-linecap="square" stroke-miterlimit="10" xmlns:xlink="http://www.w3.org/1999/xlink" xmlns="http://www.w3.org/2000/svg"><clipPath id="p.0"><path d="m0 0l288.0 0l0 288.0l-288.0 0l0 -288.0z" clip-rule="nonzero"/></clipPath><g clip-path="url(#p.0)"><path fill="#000000" fill-opacity="0.0" d="m0 0l288.0 0l0 288.0l-288.0 0z" fill-rule="evenodd"/><path fill="#000000" d="m0 144.0l0 0c0 -79.52901 64.47099 -144.0 144.0 -144.0l0 0c38.191177 0 74.81813 15.171385 101.82338 42.176624c27.005234 27.005238 42.17662 63.6322 42.17662 101.82338l0 0c0 79.52901 -64.47099 144.0 -144.0 144.0l0 0c-79.52901 0 -144.0 -64.47099 -144.0 -144.0z" fill-rule="evenodd"/><path fill="#000000" fill-opacity="0.0" d="m25.607166 9.818897l251.46458 0l0 162.51968l-251.46458 0z" fill-rule="evenodd"/><path fill="#00ffff" d="m49.823917 134.27875l-5.171875 -83.765625l15.484375 0l2.40625 50.17188l0.71875 15.828125l1.0781288 0l7.203125 -47.75l16.203125 0l7.1875 47.75l1.09375 0l0.71875 -15.359375l2.390625 -50.64063l14.890625 0l-5.171875 83.765625l-22.796875 0l-6.125 -46.203125l-1.1875 0l-6.125 46.203125l-22.796879 0zm71.99994 0l-5.171875 -83.765625l15.484367 0l2.40625 50.17188l0.71875 15.828125l1.078125 0l7.203125 -47.75l16.203125 0l7.1875 47.75l1.09375 0l0.71875 -15.359375l2.390625 -50.64063l14.890625 0l-5.171875 83.765625l-22.796875 0l-6.125 -46.203125l-1.1875 0l-6.125 46.203125l-22.796867 0zm74.64056 0l0 -83.765625l32.390625 0q6.125 0 10.921875 1.859375q4.796875 1.859375 8.09375 5.34375q3.3125 3.484375 4.984375 8.406254q1.6875 4.921875 1.6875 11.03125q0 6.125 -1.6875 11.046875q-1.671875 4.921875 -4.984375 8.40625q-3.296875 3.46875 -8.09375 5.328125q-4.796875 1.859375 -10.921875 1.859375l-14.28125 0l0 30.484375l-18.109375 0zm18.109375 -45.0l9.71875 0q6.359375 0 8.8125 -2.390625q2.46875 -2.40625 2.46875 -7.921875l0 -3.609375q0 -5.515625 -2.46875 -7.90625q-2.453125 -2.40625 -8.8125 -2.40625l-9.71875 0l0 24.234375z" fill-rule="nonzero"/><path fill="#000000" fill-opacity="0.0" d="m18.267717 117.480316l251.46455 0l0 162.51968l-251.46455 0z" fill-rule="evenodd"/><path fill="#00ffff" d="m67.146866 251.54016l0 -102.359375l39.609375 0q7.46875 0 13.328125 2.28125q5.875 2.265625 9.90625 6.515625q4.03125 4.25 6.078125 10.265625q2.0625 6.015625 2.0625 13.484375q0 7.484375 -2.0625 13.5q-2.046875 6.015625 -6.078125 10.265625q-4.03125 4.25 -9.90625 6.53125q-5.859375 2.265625 -13.328125 2.265625l-17.453125 0l0 37.25l-22.15625 0zm22.15625 -55.0l11.875 0q7.765625 0 10.765625 -2.921875q3.015625 -2.9375 3.015625 -9.6875l0 -4.40625q0 -6.734375 -3.015625 -9.671875q-3.0 -2.9375 -10.765625 -2.9375l-11.875 0l0 29.625zm101.040634 56.765625q-20.53125 0 -30.4375 -13.859375q-9.890625 -13.859375 -9.890625 -39.09375q0 -25.21875 9.890625 -39.078125q9.90625 -13.859375 30.4375 -13.859375q7.921875 0 14.0 2.125q6.09375 2.125 10.484375 5.9375q4.40625 3.8125 7.265625 9.25q2.859375 5.421875 4.46875 12.171875l-20.53125 4.984375q-0.875 -3.671875 -2.046875 -6.75q-1.171875 -3.078125 -3.015625 -5.28125q-1.828125 -2.203125 -4.546875 -3.4375q-2.703125 -1.25 -6.515625 -1.25q-8.953125 0 -12.6875 6.96875q-3.734375 6.953125 -3.734375 19.28125l0 17.890625q0 12.3125 3.734375 19.28125q3.734375 6.96875 12.6875 6.96875q7.625 0 11.0625 -4.6875q3.453125 -4.703125 5.0625 -12.03125l20.53125 4.984375q-1.609375 6.75 -4.46875 12.171875q-2.859375 5.421875 -7.265625 9.3125q-4.390625 3.890625 -10.484375 5.953125q-6.078125 2.046875 -14.0 2.046875z" fill-rule="nonzero"/></g></svg>