<svg version="1.1" viewBox="0.0 0.0 288.0 288.0" fill="none" stroke="none" stroke-linecap="square" stroke-miterlimit="10" xmlns:xlink="http://www.w3.org/1999/xlink" xmlns="http://www.w3.org/2000/svg"><clipPath id="p.0"><path d="m0 0l288.0 0l0 288.0l-288.0 0l0 -288.0z" clip-rule="nonzero"/></clipPath><g clip-path="url(#p.0)"><path fill="#000000" fill-opacity="0.0" d="m0 0l288.0 0l0 288.0l-288.0 0z" fill-rule="evenodd"/><path fill="#000000" d="m0 144.0l0 0c0 -79.52901 64.47099 -144.0 144.0 -144.0l0 0c38.191177 0 74.81813 15.171385 101.82338 42.176624c27.005234 27.005238 42.17662 63.6322 42.17662 101.82338l0 0c0 79.52901 -64.47099 144.0 -144.0 144.0l0 0c-79.52901 0 -144.0 -64.47099 -144.0 -144.0z" fill-rule="evenodd"/><path fill="#000000" fill-opacity="0.0" d="m12.190409 24.72751l272.34647 0l0 162.51968l-272.34647 0z" fill-rule="evenodd"/><path fill="#00ff00" d="m45.109726 114.89673l-1.328125 5.546875l-13.359373 -50.34375l2.890623 0l11.796875 44.796875zm2.921875 -10.8125l-1.4375 5.390625l-10.359375 -39.375l2.859375 0l8.9375 33.984375zm2.9375 -11.21875l-1.484375 5.46875l-7.46875 -28.234375l2.9375 0l6.015625 22.765625zm11.125 41.921875l-2.921875 0l17.109375 -64.609375l-0.046875 -0.078125l2.96875 0l0 0.078125l7.625 26.25l6.984375 -26.328125l2.9375 0l-17.15625 64.6875l-2.921875 0l-7.65625 -26.21875l-6.921875 26.21875zm-5.859375 0l-2.890625 0l17.109375 -64.6875l2.890625 0l-17.109375 64.6875zm-5.8125 0l-2.890625 0l17.140625 -64.6875l2.859375 0l-17.109375 64.6875zm46.671875 0l-2.921875 0l17.109375 -64.6875l2.921875 0l-17.109375 64.6875zm-5.859375 0l-2.890625 0l17.109375 -64.6875l2.890625 0l-17.109375 64.6875zm-5.8125 0l-2.890625 0l17.140625 -64.6875l2.859375 0l-17.109375 64.6875zm-42.265625 -5.546875l15.65625 -59.140625l2.9375 0l-17.15625 64.6875l-2.921875 0l-17.109373 -64.6875l2.921875 0l15.671873 59.140625zm27.34375 -26.171875l7.578125 26.40625l1.484375 -5.59375l-7.625 -26.328125l-1.4375 5.515625zm2.890625 -11.015625l7.609375 26.328125l1.484375 -5.515625l-7.609375 -26.359375l-1.484375 5.546875zm2.890625 -10.9375l7.65625 26.328125l1.4375 -5.546875l-7.578125 -26.40625l-1.515625 5.625zm58.671875 33.78125l-1.328125 5.546875l-13.359375 -50.34375l2.890625 0l11.796875 44.796875zm2.921875 -10.8125l-1.4375 5.390625l-10.359375 -39.375l2.859375 0l8.9375 33.984375zm2.9375 -11.21875l-1.484375 5.46875l-7.46875 -28.234375l2.9375 0l6.015625 22.765625zm11.125 41.921875l-2.921875 0l17.109375 -64.609375l-0.046875 -0.078125l2.96875 0l0 0.078125l7.625 26.25l6.984375 -26.328125l2.9375 0l-17.15625 64.6875l-2.921875 0l-7.65625 -26.21875l-6.921875 26.21875zm-5.859375 0l-2.890625 0l17.109375 -64.6875l2.890625 0l-17.109375 64.6875zm-5.8125 0l-2.890625 0l17.140625 -64.6875l2.859375 0l-17.109375 64.6875zm46.671875 0l-2.921875 0l17.109375 -64.6875l2.921875 0l-17.109375 64.6875zm-5.859375 0l-2.890625 0l17.109375 -64.6875l2.890625 0l-17.109375 64.6875zm-5.8125 0l-2.890625 0l17.140625 -64.6875l2.859375 0l-17.109375 64.6875zm-42.265625 -5.546875l15.65625 -59.140625l2.9375 0l-17.15625 64.6875l-2.921875 0l-17.109375 -64.6875l2.921875 0l15.671875 59.140625zm27.34375 -26.171875l7.578125 26.40625l1.484375 -5.59375l-7.625 -26.328125l-1.4375 5.515625zm2.890625 -11.015625l7.609375 26.328125l1.484375 -5.515625l-7.609375 -26.359375l-1.484375 5.546875zm2.890625 -10.9375l7.65625 26.328125l1.4375 -5.546875l-7.578125 -26.40625l-1.515625 5.625zm65.11719 23.046875l16.328125 0q4.015625 0 6.8125 -2.71875q2.7968597 -2.71875 2.7968597 -7.671875q0 -3.71875 -2.9374847 -6.65625q-2.921875 -2.953125 -6.671875 -2.953125l-24.140625 0l0 50.625l-2.8125 0l0 -53.4375l26.953125 0q4.921875 0 8.67186 3.796875q3.75 3.78125 3.75 8.625q0 5.96875 -3.640625 9.59375q-3.6249847 3.609375 -8.781235 3.609375l-16.328125 0l0 -2.8125zm0 5.625l16.328125 0q4.0625 0 7.515625 -1.96875q3.4531097 -1.984375 5.5781097 -5.6875q2.140625 -3.71875 2.140625 -8.359375q0 -6.015625 -4.59375 -10.625q-4.5937347 -4.609375 -10.64061 -4.609375l-29.765625 0l0 56.25l-2.8125 0l0 -59.0625l32.578125 0q4.71875 0 8.89061 2.5q4.1875 2.5 6.671875 6.6875q2.484375 4.171875 2.484375 8.859375q0 5.3125 -2.5 9.671875q-2.5 4.34375 -6.625 6.75q-4.1249847 2.40625 -8.92186 2.40625l-16.328125 0l0 -2.8125zm0 5.625l16.328125 0q4.171875 0 8.0 -1.65625q3.8281097 -1.671875 6.6562347 -4.5q2.84375 -2.828125 4.515625 -6.875q1.6875 -4.046875 1.6875 -8.609375q0 -5.46875 -2.859375 -10.296875q-2.84375 -4.828125 -7.671875 -7.6875q-4.8281097 -2.875 -10.32811 -2.875l-35.390625 0l0 61.875l-2.8125 0l0 -64.6875l38.203125 0q6.25 0 11.718735 3.265625q5.46875 3.25 8.703125 8.71875q3.25 5.46875 3.25 11.6875q0 5.546875 -1.921875 10.21875q-1.90625 4.65625 -5.15625 7.75q-3.234375 3.078125 -7.53125 4.78125q-4.2968597 1.703125 -9.062485 1.703125l-16.328125 0l0 -2.8125zm-2.1875 19.375l-2.8125 0l0 -47.8125l21.328125 0q2.765625 0 4.78125 2.03125q2.015625 2.03125 2.015625 4.765625q0 7.578125 -6.796875 7.578125l-16.328125 0l0 -2.8125l16.328125 0q1.875 0 2.921875 -1.046875q1.0625 -1.0625 1.0625 -3.71875q0 -1.71875 -1.15625 -2.84375q-1.15625 -1.140625 -2.828125 -1.140625l-18.515625 0l0 45.0z" fill-rule="nonzero"/><path fill="#000000" fill-opacity="0.0" d="m18.267717 117.480316l251.46455 0l0 162.51968l-251.46455 0z" fill-rule="evenodd"/><path fill="#00ff00" d="m80.10742 196.00266l24.484375 0q6.046875 0 10.234375 -4.0625q4.1875 -4.078125 4.1875 -11.53125q0 -5.5625 -4.40625 -9.984375q-4.390625 -4.421875 -10.015625 -4.421875l-36.203125 0l0 75.9375l-4.21875 0l0 -80.15625l40.421875 0q7.390625 0 13.015625 5.6875q5.625 5.671875 5.625 12.9375q0 8.96875 -5.453125 14.390625q-5.453125 5.421875 -13.1875 5.421875l-24.484375 0l0 -4.21875zm0 8.4375l24.484375 0q6.09375 0 11.28125 -2.953125q5.1875 -2.96875 8.375 -8.53125q3.203125 -5.5625 3.203125 -12.546875q0 -9.015625 -6.890625 -15.921875q-6.875 -6.921875 -15.96875 -6.921875l-44.640625 0l0 84.375l-4.21875 0l0 -88.59375l48.859375 0q7.09375 0 13.359375 3.75q6.28125 3.75 10.0 10.015625q3.71875 6.265625 3.71875 13.296875q0 7.96875 -3.75 14.515625q-3.75 6.53125 -9.9375 10.140625q-6.171875 3.59375 -13.390625 3.59375l-24.484375 0l0 -4.21875zm0 8.4375l24.484375 0q6.28125 0 12.015625 -2.484375q5.75 -2.5 9.984375 -6.75q4.25 -4.25 6.765625 -10.3125q2.53125 -6.0625 2.53125 -12.921875q0 -8.203125 -4.28125 -15.4375q-4.28125 -7.234375 -11.515625 -11.53125q-7.234375 -4.3125 -15.5 -4.3125l-53.078125 0l0 92.8125l-4.21875 0l0 -97.03125l57.296875 0q9.375 0 17.578125 4.890625q8.203125 4.890625 13.0625 13.09375q4.875 8.203125 4.875 17.515625q0 8.328125 -2.875 15.328125q-2.875 7.0 -7.734375 11.640625q-4.859375 4.625 -11.3125 7.171875q-6.4375 2.546875 -13.59375 2.546875l-24.484375 0l0 -4.21875zm-3.28125 29.0625l-4.21875 0l0 -71.71875l31.984375 0q4.171875 0 7.1875 3.046875q3.015625 3.046875 3.015625 7.140625q0 11.375 -10.203125 11.375l-24.484375 0l0 -4.21875l24.484375 0q2.8125 0 4.390625 -1.578125q1.59375 -1.59375 1.59375 -5.578125q0 -2.578125 -1.734375 -4.265625q-1.71875 -1.703125 -4.25 -1.703125l-27.765625 0l0 67.5zm145.77344 -63.875l-3.453125 2.296875q-3.15625 -4.6875 -8.234375 -7.40625q-5.0625 -2.734375 -10.984375 -2.734375q-9.609375 0 -16.40625 6.796875q-6.796875 6.796875 -6.796875 16.40625q0 9.609375 6.796875 16.40625q6.796875 6.796875 16.40625 6.796875q5.921875 0 10.984375 -2.75q5.078125 -2.765625 8.234375 -7.453125l3.40625 2.46875q-3.75 5.5 -9.734375 8.734375q-5.96875 3.21875 -12.890625 3.21875q-5.5625 0 -10.640625 -2.171875q-5.0625 -2.171875 -8.75 -5.859375q-3.6875 -3.6875 -5.859375 -8.75q-2.171875 -5.078125 -2.171875 -10.640625q0 -5.5625 2.171875 -10.625q2.171875 -5.078125 5.859375 -8.765625q3.6875 -3.703125 8.75 -5.859375q5.078125 -2.171875 10.640625 -2.171875q6.96875 0 12.9375 3.25q5.984375 3.25 9.734375 8.8125zm6.984375 -4.796875l-3.515625 2.28125q-4.34375 -6.328125 -11.234375 -10.046875q-6.875 -3.71875 -14.90625 -3.71875q-8.609375 0 -15.875 4.25q-7.265625 4.25 -11.515625 11.515625q-4.25 7.265625 -4.25 15.875q0 8.609375 4.25 15.875q4.25 7.265625 11.515625 11.515625q7.265625 4.25 15.875 4.25q8.03125 0 14.9375 -3.75q6.921875 -3.75 11.25 -10.140625l3.46875 2.40625q-4.921875 7.265625 -12.75 11.484375q-7.828125 4.21875 -16.90625 4.21875q-9.71875 0 -17.984375 -4.796875q-8.265625 -4.8125 -13.078125 -13.078125q-4.796875 -8.265625 -4.796875 -17.984375q0 -9.734375 4.796875 -17.984375q4.8125 -8.265625 13.078125 -13.0625q8.265625 -4.8125 17.984375 -4.8125q9.078125 0 16.90625 4.21875q7.828125 4.21875 12.75 11.484375zm7.03125 -4.6875l-3.515625 2.28125q-5.515625 -8.078125 -14.28125 -12.796875q-8.75 -4.71875 -18.890625 -4.71875q-8.140625 0 -15.59375 3.171875q-7.4375 3.15625 -12.796875 8.515625q-5.359375 5.359375 -8.53125 12.8125q-3.15625 7.4375 -3.15625 15.578125q0 8.140625 3.15625 15.59375q3.171875 7.4375 8.53125 12.796875q5.359375 5.359375 12.796875 8.53125q7.453125 3.15625 15.59375 3.15625q10.203125 0 18.921875 -4.75q8.734375 -4.75 14.25 -12.828125l3.390625 2.515625q-6.09375 8.90625 -15.734375 14.09375q-9.640625 5.1875 -20.828125 5.1875q-12.015625 0 -22.21875 -5.9375q-10.1875 -5.953125 -16.140625 -16.140625q-5.9375 -10.203125 -5.9375 -22.21875q0 -12.015625 5.9375 -22.203125q5.953125 -10.203125 16.140625 -16.140625q10.203125 -5.953125 22.21875 -5.953125q11.25 0 20.921875 5.25q9.671875 5.234375 15.765625 14.203125zm6.90625 -4.8125l-3.515625 2.296875q-6.671875 -9.796875 -17.25 -15.46875q-10.578125 -5.6875 -22.828125 -5.6875q-9.84375 0 -18.84375 3.84375q-8.984375 3.828125 -15.5 10.34375q-6.5 6.5 -10.34375 15.5q-3.828125 8.984375 -3.828125 18.828125q0 9.84375 3.828125 18.84375q3.84375 8.984375 10.34375 15.5q6.515625 6.5 15.5 10.34375q9.0 3.828125 18.84375 3.828125q12.25 0 22.84375 -5.734375q10.609375 -5.75 17.296875 -15.53125l3.390625 2.578125q-7.265625 10.546875 -18.75 16.734375q-11.484375 6.171875 -24.78125 6.171875q-10.71875 0 -20.484375 -4.1875q-9.75 -4.1875 -16.8125 -11.25q-7.0625 -7.0625 -11.25 -16.8125q-4.1875 -9.765625 -4.1875 -20.484375q0 -10.71875 4.1875 -20.46875q4.1875 -9.765625 11.25 -16.828125q7.0625 -7.0625 16.8125 -11.25q9.765625 -4.1875 20.484375 -4.1875q13.359375 0 24.84375 6.21875q11.484375 6.203125 18.75 16.859375z" fill-rule="nonzero"/></g></svg>